<svg width="1333" height="992" viewBox="0 0 1333 992" fill="none" xmlns="http://www.w3.org/2000/svg">
<path d="M745.28 778.342C615.516 521.017 487.063 266.046 359.071 11.9926C374.438 -0.71416 386.935 4.20423 398.441 4.08827C537.353 2.68782 676.279 2.32885 815.174 0.00996505C841.189 -0.424024 851.229 13.3614 860.944 32.7796C952.271 215.336 1043.75 397.818 1135.51 580.154C1197.41 703.149 1259.88 825.859 1321.98 948.752C1327.31 959.297 1335.19 969.196 1332.43 984.701C1307.8 992.486 1281.23 991.087 1255.57 991.086C1128.74 991.082 1001.91 989.081 875.073 988.761C856.301 988.713 847.076 981.078 839.268 965.134C809.007 903.346 777.582 842.127 745.28 778.342Z" fill="url(#paint0_linear_3334_32)"/>
<path d="M125.979 637.943C190.459 561.536 267.981 508.335 358.759 473.28C384.436 463.364 399.782 464.739 413.139 492.58C451.734 573.032 493.198 652.106 533.407 731.785C538.193 741.27 544.51 750.485 543.371 760.332C537.062 771.098 527.87 769.252 519.813 770.318C418.714 783.689 343.566 857.943 330.161 959.545C327.237 981.705 319.195 988.819 295.787 989.945C210.092 994.064 124.534 984.951 39.053 989.065C4.83467 990.711 -2.14943 977.155 0.511386 947.022C10.6733 831.935 51.152 729.436 125.979 637.943Z" fill="url(#paint1_linear_3334_32)"/>
<defs>
<linearGradient id="paint0_linear_3334_32" x1="846.035" y1="0" x2="846.035" y2="991.184" gradientUnits="userSpaceOnUse">
<stop stop-color="#0E11E7"/>
<stop offset="1" stop-color="#3C8ACE"/>
</linearGradient>
<linearGradient id="paint1_linear_3334_32" x1="271.753" y1="467.667" x2="271.753" y2="991.041" gradientUnits="userSpaceOnUse">
<stop stop-color="#091F81"/>
<stop offset="1" stop-color="#1C6ABD"/>
</linearGradient>
</defs>
</svg>
