<svg width="52" height="39" viewBox="0 0 52 39" fill="none" xmlns="http://www.w3.org/2000/svg">
<path d="M29.0733 30.363C24.0112 20.3248 19.0003 10.3784 14.0073 0.467829C14.6068 -0.0278593 15.0943 0.164007 15.5432 0.159483C20.9621 0.104852 26.3816 0.0908482 31.7999 0.000388736C32.8147 -0.0165411 33.2064 0.521226 33.5853 1.27873C37.148 8.40024 40.7165 15.5188 44.2963 22.6318C46.711 27.4298 49.1478 32.2167 51.5703 37.0107C51.7782 37.4221 52.0858 37.8082 51.9779 38.4131C51.0171 38.7168 49.9806 38.6622 48.9798 38.6622C44.032 38.662 39.0843 38.584 34.1365 38.5715C33.4042 38.5696 33.0444 38.2717 32.7398 37.6498C31.5593 35.2394 30.3334 32.8513 29.0733 30.363Z" fill="white"/>
<path d="M4.91443 24.8861C7.42977 21.9055 10.4539 19.8301 13.9951 18.4626C14.9968 18.0758 15.5955 18.1294 16.1165 19.2155C17.6221 22.3539 19.2396 25.4386 20.8082 28.5469C20.9949 28.9169 21.2413 29.2763 21.1969 29.6605C20.9507 30.0805 20.5921 30.0084 20.2778 30.05C16.334 30.5716 13.4025 33.4683 12.8795 37.4318C12.7655 38.2962 12.4518 38.5737 11.5386 38.6176C8.19568 38.7783 4.85804 38.4228 1.52345 38.5833C0.1886 38.6475 -0.0838489 38.1187 0.0199491 36.9432C0.416363 32.4537 1.99543 28.4552 4.91443 24.8861Z" fill="white"/>
</svg>
